<?xml version="1.0" encoding="UTF-8"?>
<svg width="100%" height="100%" viewBox="0 0 122 122" xmlns="http://www.w3.org/2000/svg">

  <!-- Concentric dashed rings -->
  <g stroke="white" stroke-opacity=".4" fill="none">
    <circle cx="61" cy="61" r="2"  stroke-dasharray="2 3"/>
    <circle cx="61" cy="61" r="4"  stroke-dasharray="3.84 3.52"/>
    <circle cx="61" cy="61" r="6"  stroke-dasharray="2.71 2.46"/>
    <circle cx="61" cy="61" r="8"  stroke-dasharray="2.43 2.06"/>
    <circle cx="61" cy="61" r="10"  stroke-dasharray="3.38 3.84"/>
    <circle cx="61" cy="61" r="12"  stroke-dasharray="2.15 3.24"/>
    <circle cx="61" cy="61" r="14"  stroke-dasharray="2.98 3.5"/>
    <circle cx="61" cy="61" r="16"  stroke-dasharray="3.06 3.04"/>
    <circle cx="61" cy="61" r="18"  stroke-dasharray="2.77 3.14"/>
    <circle cx="61" cy="61" r="20"  stroke-dasharray="2.17 2.19"/>
    <circle cx="61" cy="61" r="22"  stroke-dasharray="2.71 3.59"/>
    <circle cx="61" cy="61" r="24"  stroke-dasharray="3.52 2.37"/>
    <circle cx="61" cy="61" r="26"  stroke-dasharray="3.57 3.72"/>
    <circle cx="61" cy="61" r="28"  stroke-dasharray="3.69 3.19"/>
    <circle cx="61" cy="61" r="30"  stroke-dasharray="3.89 3.12"/>
    <circle cx="61" cy="61" r="32"  stroke-dasharray="2.35 2.1"/>
    <circle cx="61" cy="61" r="34"  stroke-dasharray="2.02 2.77"/>
    <circle cx="61" cy="61" r="36"  stroke-dasharray="2.22 3.44"/>
    <circle cx="61" cy="61" r="38"  stroke-dasharray="3.75 2.28"/>
    <circle cx="61" cy="61" r="40"  stroke-dasharray="2.76 3.1"/>
    <circle cx="61" cy="61" r="42"  stroke-dasharray="2.7 2.68"/>
    <circle cx="61" cy="61" r="44"  stroke-dasharray="2.37 3.8"/>
    <circle cx="61" cy="61" r="46"  stroke-dasharray="2.84 2.24"/>
    <circle cx="61" cy="61" r="48"  stroke-dasharray="2.82 2.25"/>
    <circle cx="61" cy="61" r="50"  stroke-dasharray="3.16 3.96"/>
    <circle cx="61" cy="61" r="52"  stroke-dasharray="3.17 3.37"/>
    <circle cx="61" cy="61" r="54"  stroke-dasharray="3.47 3.85"/>
    <circle cx="61" cy="61" r="56"  stroke-dasharray="2.55 2.89"/>
    <circle cx="61" cy="61" r="58"  stroke-dasharray="3.4 2.75"/>
    <circle cx="61" cy="61" r="60"  stroke-dasharray="3.67 2.55"/>
    <circle cx="61" cy="61" r="62"  stroke-dasharray="3.82 3.08"/>
    <circle cx="61" cy="61" r="64"  stroke-dasharray="3.35 2.95"/>
    <circle cx="61" cy="61" r="66"  stroke-dasharray="3.42 3.21"/>
    <circle cx="61" cy="61" r="68"  stroke-dasharray="2.82 3.09"/>
    <circle cx="61" cy="61" r="70"  stroke-dasharray="2.01 3.19"/>
    <circle cx="61" cy="61" r="72"  stroke-dasharray="2.62 3.63"/>
    <circle cx="61" cy="61" r="74"  stroke-dasharray="2.42 3.04"/>
    <circle cx="61" cy="61" r="76"  stroke-dasharray="3.76 3.31"/>
    <circle cx="61" cy="61" r="78"  stroke-dasharray="2.55 3.96"/>
    <circle cx="61" cy="61" r="80"  stroke-dasharray="2.86 3.24"/>
    <circle cx="61" cy="61" r="82"  stroke-dasharray="3.89 2.24"/>
  </g>
</svg>
